<svg width="10" height="10" viewBox="0 0 10 10" fill="none" xmlns="http://www.w3.org/2000/svg">
<path d="M7.62509 2.37877C7.58654 2.34015 7.54076 2.3095 7.49035 2.28859C7.43995 2.26768 7.38591 2.25692 7.33134 2.25692C7.27677 2.25692 7.22274 2.26768 7.17233 2.28859C7.12193 2.3095 7.07614 2.34015 7.03759 2.37877L5.00009 4.4121L2.96259 2.3746C2.92402 2.33603 2.87822 2.30543 2.82782 2.28455C2.77742 2.26367 2.7234 2.25293 2.66884 2.25293C2.61429 2.25293 2.56027 2.26367 2.50987 2.28455C2.45947 2.30543 2.41367 2.33603 2.37509 2.3746C2.33652 2.41318 2.30592 2.45898 2.28504 2.50938C2.26416 2.55978 2.25342 2.6138 2.25342 2.66835C2.25342 2.72291 2.26416 2.77693 2.28504 2.82733C2.30592 2.87773 2.33652 2.92353 2.37509 2.9621L4.41259 4.9996L2.37509 7.0371C2.33652 7.07568 2.30592 7.12148 2.28504 7.17188C2.26416 7.22228 2.25342 7.2763 2.25342 7.33085C2.25342 7.38541 2.26416 7.43943 2.28504 7.48983C2.30592 7.54023 2.33652 7.58603 2.37509 7.6246C2.41367 7.66318 2.45947 7.69378 2.50987 7.71466C2.56027 7.73553 2.61429 7.74628 2.66884 7.74628C2.7234 7.74628 2.77742 7.73553 2.82782 7.71466C2.87822 7.69378 2.92402 7.66318 2.96259 7.6246L5.00009 5.5871L7.03759 7.6246C7.07617 7.66318 7.12196 7.69378 7.17237 7.71466C7.22277 7.73553 7.27679 7.74628 7.33134 7.74628C7.3859 7.74628 7.43992 7.73553 7.49032 7.71466C7.54072 7.69378 7.58652 7.66318 7.62509 7.6246C7.66367 7.58603 7.69427 7.54023 7.71515 7.48983C7.73602 7.43943 7.74677 7.38541 7.74677 7.33085C7.74677 7.2763 7.73602 7.22228 7.71515 7.17188C7.69427 7.12148 7.66367 7.07568 7.62509 7.0371L5.58759 4.9996L7.62509 2.9621C7.78343 2.80377 7.78343 2.5371 7.62509 2.37877Z" fill="black"/>
</svg>
