<svg width="25" height="26" viewBox="0 0 25 26" fill="none" xmlns="http://www.w3.org/2000/svg">
<path d="M18.568 5.19238C18.3684 5.19499 18.1777 5.27544 18.0365 5.41658C17.8955 5.55773 17.815 5.7484 17.8124 5.948V8.39619L16.9661 7.5499C16.0906 6.66697 15.0039 6.02251 13.8093 5.67771C12.6146 5.33291 11.3516 5.29922 10.1403 5.57984C8.92901 5.86047 7.80952 6.44609 6.8882 7.28109C5.96688 8.11609 5.2743 9.17274 4.87623 10.3507C4.83478 10.4467 4.814 10.5504 4.81524 10.655C4.81648 10.7596 4.8397 10.8627 4.88341 10.9577C4.92712 11.0527 4.99033 11.1376 5.06894 11.2065C5.14755 11.2755 5.23979 11.3272 5.33968 11.3582C5.42301 11.3727 5.50822 11.3727 5.59155 11.3582C5.74917 11.3566 5.90246 11.3064 6.03048 11.2144C6.1585 11.1225 6.25503 10.9933 6.30686 10.8444C6.58832 10.0083 7.06093 9.24934 7.68712 8.62791C8.77476 7.5445 10.2474 6.93619 11.7825 6.93619C13.3178 6.93619 14.7904 7.5445 15.878 8.62791L16.7243 9.4742H14.2962C14.0958 9.4742 13.9036 9.55381 13.762 9.69552C13.6202 9.83722 13.5406 10.0294 13.5406 10.2298C13.5406 10.4302 13.6202 10.6224 13.762 10.7641C13.9036 10.9058 14.0958 10.9854 14.2962 10.9854H18.568C18.6676 10.9867 18.7664 10.9682 18.8587 10.9307C18.951 10.8932 19.0348 10.8376 19.1053 10.7671C19.1758 10.6967 19.2314 10.6129 19.2689 10.5206C19.3064 10.4283 19.325 10.3294 19.3236 10.2298V5.948C19.3236 5.7476 19.244 5.5554 19.1022 5.4137C18.9606 5.27199 18.7684 5.19238 18.568 5.19238Z" fill="black"/>
<path d="M18.8198 14.6927C18.7228 14.6546 18.6191 14.6367 18.5149 14.64C18.4107 14.6435 18.3084 14.668 18.214 14.7124C18.1197 14.7567 18.0355 14.8199 17.9663 14.8979C17.8972 14.9759 17.8448 15.0672 17.8123 15.1662C17.5308 16.0024 17.0583 16.7613 16.432 17.3827C15.3445 18.4662 13.8718 19.0744 12.3366 19.0744C10.8015 19.0744 9.32882 18.4662 8.24118 17.3827L7.39489 16.5364H9.8834C10.0838 16.5364 10.276 16.4568 10.4176 16.3151C10.5594 16.1734 10.639 15.9812 10.639 15.7808C10.639 15.5804 10.5594 15.3882 10.4176 15.2465C10.276 15.1048 10.0838 15.0252 9.8834 15.0252H5.61164C5.51204 15.0238 5.41318 15.0424 5.32089 15.0799C5.2286 15.1175 5.14476 15.1731 5.07433 15.2435C5.00388 15.3139 4.94828 15.3978 4.91078 15.4901C4.87329 15.5823 4.85468 15.6812 4.85603 15.7808V20.0526C4.85603 20.253 4.93564 20.4452 5.07734 20.5868C5.21905 20.7286 5.41124 20.8082 5.61164 20.8082C5.81205 20.8082 6.00424 20.7286 6.14594 20.5868C6.28765 20.4452 6.36726 20.253 6.36726 20.0526V17.6044L7.21354 18.4507C8.08905 19.3336 9.17573 19.978 10.3704 20.3229C11.565 20.6676 12.828 20.7013 14.0393 20.4207C15.2507 20.1401 16.3701 19.5545 17.2914 18.7195C18.2128 17.8844 18.9053 16.8278 19.3034 15.6498C19.3362 15.5553 19.3498 15.4552 19.3432 15.3554C19.3365 15.2555 19.3098 15.158 19.2647 15.0687C19.2196 14.9794 19.1569 14.9001 19.0804 14.8355C19.0041 14.7709 18.9154 14.7224 18.8198 14.6927Z" fill="black"/>
</svg>
