<svg width="20" height="14" viewBox="0 0 20 14" fill="none" xmlns="http://www.w3.org/2000/svg">
<path d="M10.2216 1.49963L9.81251 0.757019C9.67666 0.509973 9.41672 0.356445 9.1347 0.356445H3.00901C2.58193 0.356445 2.23547 0.702897 2.23547 1.12998V12.8387C2.23547 13.2827 2.59555 13.6428 3.03957 13.6428H16.9599C17.4039 13.6428 17.764 13.2827 17.764 12.8387V2.61998C17.764 2.19253 17.4175 1.84645 16.9905 1.84645H10.8081C10.564 1.84645 10.3394 1.71354 10.2216 1.49963Z" fill="#FFBA00"/>
<path opacity="0.3" d="M10.2216 1.49963L9.81251 0.757019C9.67666 0.509973 9.41672 0.356445 9.1347 0.356445H3.00901C2.58193 0.356445 2.23547 0.702897 2.23547 1.12998V12.8387C2.23547 13.2827 2.59555 13.6428 3.03957 13.6428H16.9599C17.4039 13.6428 17.764 13.2827 17.764 12.8387V2.61998C17.764 2.19253 17.4175 1.84645 16.9905 1.84645H10.8081C10.564 1.84645 10.3394 1.71354 10.2216 1.49963Z" fill="white"/>
<path d="M15.8285 2.31445H3.95557V11.1926H15.8285V2.31445Z" fill="#263238"/>
<path opacity="0.8" d="M15.8285 2.31445H3.95557V11.1926H15.8285V2.31445Z" fill="white"/>
<path d="M16.6867 3.20605H3.09778V13.3673H16.6867V3.20605Z" fill="#263238"/>
<path opacity="0.9" d="M16.6867 3.20605H3.09778V13.3673H16.6867V3.20605Z" fill="white"/>
<path d="M19.1288 3.46191C15.8712 3.46191 14.2417 3.46191 10.9841 3.46191C10.6089 3.46191 10.2613 3.59446 10.0809 3.80763C9.8637 4.06388 9.75693 4.19238 9.5467 4.44863C9.39538 4.63308 9.10821 4.74795 8.79415 4.74795C5.61202 4.74795 4.02076 4.74795 0.838259 4.74795C0.288206 4.74795 -0.0803343 5.04691 0.0150229 5.41582C0.792608 8.42933 1.18103 9.93627 1.95861 12.9498C2.05765 13.3331 2.49431 13.6438 2.93465 13.6438C7.53462 13.6438 12.1342 13.6438 16.7342 13.6438C17.1745 13.6438 17.6112 13.3331 17.7102 12.9498C18.4687 10.0099 19.2271 7.06966 19.9856 4.12978C20.0805 3.76087 19.6969 3.46191 19.1288 3.46191Z" fill="#FFBA00"/>
<g opacity="0.6">
<path d="M19.1288 3.46191C15.8712 3.46191 14.2417 3.46191 10.9841 3.46191C10.6089 3.46191 10.2613 3.59446 10.0809 3.80763C9.8637 4.06388 9.75693 4.19238 9.5467 4.44863C9.39538 4.63308 9.10821 4.74795 8.79415 4.74795C5.61202 4.74795 4.02076 4.74795 0.838259 4.74795C0.288206 4.74795 -0.0803343 5.04691 0.0150229 5.41582C0.792608 8.42933 1.18103 9.93627 1.95861 12.9498C2.05765 13.3331 2.49431 13.6438 2.93465 13.6438C7.53462 13.6438 12.1342 13.6438 16.7342 13.6438C17.1745 13.6438 17.6112 13.3331 17.7102 12.9498C18.4687 10.0099 19.2271 7.06966 19.9856 4.12978C20.0805 3.76087 19.6969 3.46191 19.1288 3.46191Z" fill="white"/>
</g>
</svg>
