<svg width="24" height="25" viewBox="0 0 24 25" fill="none" xmlns="http://www.w3.org/2000/svg">
<path d="M9 18.2505C8.59 18.2505 8.25 17.9105 8.25 17.5005V13.3105L7.53 14.0305C7.24 14.3205 6.76 14.3205 6.47 14.0305C6.18 13.7405 6.18 13.2605 6.47 12.9705L8.47 10.9705C8.68 10.7605 9.01 10.6905 9.29 10.8105C9.57 10.9205 9.75 11.2005 9.75 11.5005V17.5005C9.75 17.9105 9.41 18.2505 9 18.2505Z" fill="white"/>
<path d="M11 14.2504C10.81 14.2504 10.62 14.1804 10.47 14.0304L8.47 12.0304C8.18 11.7404 8.18 11.2604 8.47 10.9704C8.76 10.6804 9.24 10.6804 9.53 10.9704L11.53 12.9704C11.82 13.2604 11.82 13.7404 11.53 14.0304C11.38 14.1804 11.19 14.2504 11 14.2504Z" fill="white"/>
<path d="M15 23.25H9C3.57 23.25 1.25 20.93 1.25 15.5V9.5C1.25 4.07 3.57 1.75 9 1.75H14C14.41 1.75 14.75 2.09 14.75 2.5C14.75 2.91 14.41 3.25 14 3.25H9C4.39 3.25 2.75 4.89 2.75 9.5V15.5C2.75 20.11 4.39 21.75 9 21.75H15C19.61 21.75 21.25 20.11 21.25 15.5V10.5C21.25 10.09 21.59 9.75 22 9.75C22.41 9.75 22.75 10.09 22.75 10.5V15.5C22.75 20.93 20.43 23.25 15 23.25Z" fill="white"/>
<path d="M22 11.2505H18C14.58 11.2505 13.25 9.92048 13.25 6.50048V2.50048C13.25 2.20048 13.43 1.92048 13.71 1.81048C13.99 1.69048 14.31 1.76048 14.53 1.97048L22.53 9.97048C22.74 10.1805 22.81 10.5105 22.69 10.7905C22.57 11.0705 22.3 11.2505 22 11.2505ZM14.75 4.31048V6.50048C14.75 9.08048 15.42 9.75048 18 9.75048H20.19L14.75 4.31048Z" fill="white"/>
</svg>
