<svg width="18" height="19" viewBox="0 0 18 19" fill="none" xmlns="http://www.w3.org/2000/svg">
<path fill-rule="evenodd" clip-rule="evenodd" d="M17.8228 0.668777C17.7204 0.567527 17.5787 0.5 17.4217 0.5H12.375C12.0639 0.5 11.8125 0.753125 11.8125 1.0625C11.8125 1.37188 12.0639 1.625 12.375 1.625H16.1038L10.0294 7.70003L10.8247 8.4931L16.8924 2.42377L16.875 6.125C16.875 6.43437 17.1264 6.6875 17.4375 6.6875C17.7486 6.6875 18 6.43437 18 6.125V1.0625C18 0.89375 17.9314 0.758777 17.8228 0.668777ZM7.17526 10.5069L1.10756 16.5762L1.125 12.875C1.125 12.5656 0.873562 12.3125 0.5625 12.3125C0.251438 12.3125 0 12.5656 0 12.875V17.9375C0 18.1063 0.0686264 18.2412 0.177189 18.3312C0.279564 18.4325 0.421321 18.5 0.578259 18.5H5.625C5.93606 18.5 6.1875 18.2469 6.1875 17.9375C6.1875 17.6281 5.93606 17.375 5.625 17.375H1.89619L7.97063 11.3L7.17526 10.5069Z" fill="black"/>
</svg>
