<svg width="18" height="12" viewBox="0 0 18 12" fill="none" xmlns="http://www.w3.org/2000/svg">
<path d="M8.62206 11.8394C8.45962 11.8394 8.29683 11.835 8.13331 11.8264C4.65564 11.641 1.48775 9.46964 0.0631859 6.2942C-0.0148271 6.12026 -0.0205458 5.92244 0.0472882 5.74428C0.115122 5.56612 0.250952 5.4222 0.424897 5.34419C0.598842 5.26618 0.796653 5.26046 0.974814 5.32829C1.15297 5.39613 1.29689 5.53196 1.3749 5.7059C2.58133 8.39475 5.26406 10.234 8.20986 10.3907C11.4608 10.565 14.541 8.68081 15.876 5.7059C15.9541 5.53196 16.098 5.39613 16.2761 5.32829C16.4543 5.26046 16.6521 5.26618 16.8261 5.34419C17 5.4222 17.1358 5.56612 17.2037 5.74428C17.2715 5.92244 17.2658 6.12026 17.1878 6.2942C15.678 9.65831 12.2783 11.8394 8.62206 11.8394Z" fill="#363434"/>
<path d="M0.718688 6.71958C0.598685 6.71957 0.480594 6.68952 0.375187 6.63215C0.269781 6.57479 0.180415 6.49195 0.11524 6.39119C0.0500659 6.29042 0.0111581 6.17495 0.00206605 6.05529C-0.00702596 5.93563 0.0139871 5.8156 0.0631886 5.70614C1.63977 2.19289 5.27952 -0.0287614 9.11728 0.173926C12.595 0.359364 15.7628 2.53071 17.1874 5.70614C17.226 5.79227 17.2473 5.88517 17.25 5.97952C17.2528 6.07388 17.2369 6.16785 17.2033 6.25606C17.1697 6.34428 17.1191 6.42501 17.0543 6.49366C16.9895 6.56231 16.9118 6.61752 16.8257 6.65615C16.7396 6.69478 16.6467 6.71607 16.5523 6.71879C16.458 6.72152 16.364 6.70564 16.2758 6.67205C16.1876 6.63846 16.1068 6.58783 16.0382 6.52304C15.9695 6.45825 15.9143 6.38057 15.8757 6.29444C14.6693 3.6056 11.9865 1.76632 9.04074 1.60963C5.79127 1.43605 2.70963 3.31954 1.37455 6.29444C1.31801 6.42111 1.22597 6.52868 1.10957 6.60413C0.993172 6.67958 0.857402 6.71968 0.718688 6.71958Z" fill="#363434"/>
<path d="M8.62529 8.96202C6.99193 8.96202 5.66296 7.63341 5.66296 6.00006C5.66296 4.3667 6.99193 3.03809 8.62529 3.03809C10.2587 3.03809 11.5876 4.3667 11.5876 6.00006C11.5876 7.63341 10.2587 8.96202 8.62529 8.96202ZM8.62529 4.47559C7.79873 4.47559 7.10046 5.17349 7.10046 6.00006C7.10046 6.82662 7.79873 7.52452 8.62529 7.52452C9.45185 7.52452 10.1501 6.82662 10.1501 6.00006C10.1501 5.17349 9.45185 4.47559 8.62529 4.47559Z" fill="#363434"/>
</svg>
