<svg width="270" height="55" viewBox="0 0 270 55" fill="none" xmlns="http://www.w3.org/2000/svg">
<g clip-path="url(#clip0_17_102)">
<path d="M15.3237 30.8928L9.9698 36.2467L18.6933 44.9714L27.4329 36.2318L9.85254 18.6491L18.6266 9.875L24.3392 15.5876" stroke="#FCFCFC" stroke-width="4" stroke-miterlimit="10"/>
<path d="M30.3806 39.4419L36.0714 45.1338L45.5445 35.6631L36.9543 27.0729L45.1731 18.8541L36.1864 9.86731L27.4686 18.5885C27.4548 23.7113 27.4502 25.9945 27.4502 27.0718V29.6665" stroke="#EF6A37" stroke-width="4" stroke-miterlimit="10"/>
</g>
<path d="M70.62 36.42C68.54 36.42 66.79 35.96 65.37 35.04C63.95 34.1 62.95 32.83 62.37 31.23L65.91 29.16C66.73 31.3 68.34 32.37 70.74 32.37C71.9 32.37 72.75 32.16 73.29 31.74C73.83 31.32 74.1 30.79 74.1 30.15C74.1 29.41 73.77 28.84 73.11 28.44C72.45 28.02 71.27 27.57 69.57 27.09C68.63 26.81 67.83 26.53 67.17 26.25C66.53 25.97 65.88 25.6 65.22 25.14C64.58 24.66 64.09 24.06 63.75 23.34C63.41 22.62 63.24 21.78 63.24 20.82C63.24 18.92 63.91 17.41 65.25 16.29C66.61 15.15 68.24 14.58 70.14 14.58C71.84 14.58 73.33 15 74.61 15.84C75.91 16.66 76.92 17.81 77.64 19.29L74.16 21.3C73.32 19.5 71.98 18.6 70.14 18.6C69.28 18.6 68.6 18.8 68.1 19.2C67.62 19.58 67.38 20.08 67.38 20.7C67.38 21.36 67.65 21.9 68.19 22.32C68.75 22.72 69.81 23.16 71.37 23.64C72.01 23.84 72.49 24 72.81 24.12C73.15 24.22 73.6 24.39 74.16 24.63C74.74 24.85 75.18 25.06 75.48 25.26C75.8 25.46 76.16 25.73 76.56 26.07C76.96 26.41 77.26 26.76 77.46 27.12C77.68 27.48 77.86 27.92 78 28.44C78.16 28.94 78.24 29.49 78.24 30.09C78.24 32.03 77.53 33.57 76.11 34.71C74.71 35.85 72.88 36.42 70.62 36.42ZM93.9504 34.14C92.4104 35.66 90.5304 36.42 88.3104 36.42C86.0904 36.42 84.2104 35.66 82.6704 34.14C81.1504 32.6 80.3904 30.72 80.3904 28.5C80.3904 26.28 81.1504 24.41 82.6704 22.89C84.2104 21.35 86.0904 20.58 88.3104 20.58C90.5304 20.58 92.4104 21.35 93.9504 22.89C95.4904 24.41 96.2604 26.28 96.2604 28.5C96.2604 30.72 95.4904 32.6 93.9504 34.14ZM85.4004 31.47C86.1804 32.25 87.1504 32.64 88.3104 32.64C89.4704 32.64 90.4404 32.25 91.2204 31.47C92.0004 30.69 92.3904 29.7 92.3904 28.5C92.3904 27.3 92.0004 26.31 91.2204 25.53C90.4404 24.75 89.4704 24.36 88.3104 24.36C87.1504 24.36 86.1804 24.75 85.4004 25.53C84.6404 26.31 84.2604 27.3 84.2604 28.5C84.2604 29.7 84.6404 30.69 85.4004 31.47ZM108.883 21H112.753V36H108.883V34.32C107.943 35.72 106.453 36.42 104.413 36.42C102.773 36.42 101.413 35.87 100.333 34.77C99.2729 33.67 98.7429 32.15 98.7429 30.21V21H102.613V29.73C102.613 30.73 102.883 31.5 103.423 32.04C103.963 32.56 104.683 32.82 105.583 32.82C106.583 32.82 107.383 32.51 107.983 31.89C108.583 31.27 108.883 30.34 108.883 29.1V21ZM120.167 23.58C120.527 22.62 121.117 21.9 121.937 21.42C122.777 20.94 123.707 20.7 124.727 20.7V25.02C123.547 24.88 122.487 25.12 121.547 25.74C120.627 26.36 120.167 27.39 120.167 28.83V36H116.297V21H120.167V23.58ZM133.574 36.42C131.314 36.42 129.424 35.66 127.904 34.14C126.404 32.62 125.654 30.74 125.654 28.5C125.654 26.26 126.404 24.38 127.904 22.86C129.424 21.34 131.314 20.58 133.574 20.58C135.034 20.58 136.364 20.93 137.564 21.63C138.764 22.33 139.674 23.27 140.294 24.45L136.964 26.4C136.664 25.78 136.204 25.29 135.584 24.93C134.984 24.57 134.304 24.39 133.544 24.39C132.384 24.39 131.424 24.78 130.664 25.56C129.904 26.32 129.524 27.3 129.524 28.5C129.524 29.68 129.904 30.66 130.664 31.44C131.424 32.2 132.384 32.58 133.544 32.58C134.324 32.58 135.014 32.41 135.614 32.07C136.234 31.71 136.694 31.22 136.994 30.6L140.354 32.52C139.694 33.7 138.764 34.65 137.564 35.37C136.364 36.07 135.034 36.42 133.574 36.42ZM145.436 30.09C145.956 31.97 147.366 32.91 149.666 32.91C151.146 32.91 152.266 32.41 153.026 31.41L156.146 33.21C154.666 35.35 152.486 36.42 149.606 36.42C147.126 36.42 145.136 35.67 143.636 34.17C142.136 32.67 141.386 30.78 141.386 28.5C141.386 26.24 142.126 24.36 143.606 22.86C145.086 21.34 146.986 20.58 149.306 20.58C151.506 20.58 153.316 21.34 154.736 22.86C156.176 24.38 156.896 26.26 156.896 28.5C156.896 29 156.846 29.53 156.746 30.09H145.436ZM145.376 27.09H153.026C152.806 26.07 152.346 25.31 151.646 24.81C150.966 24.31 150.186 24.06 149.306 24.06C148.266 24.06 147.406 24.33 146.726 24.87C146.046 25.39 145.596 26.13 145.376 27.09ZM172.468 25.11C174.308 26.17 175.228 27.77 175.228 29.91C175.228 31.69 174.598 33.15 173.338 34.29C172.078 35.43 170.528 36 168.688 36H159.778V15H168.058C169.858 15 171.368 15.56 172.588 16.68C173.828 17.78 174.448 19.19 174.448 20.91C174.448 22.65 173.788 24.05 172.468 25.11ZM168.058 18.87H163.918V23.49H168.058C168.698 23.49 169.228 23.27 169.648 22.83C170.088 22.39 170.308 21.84 170.308 21.18C170.308 20.52 170.098 19.97 169.678 19.53C169.258 19.09 168.718 18.87 168.058 18.87ZM168.688 32.13C169.388 32.13 169.968 31.9 170.428 31.44C170.888 30.96 171.118 30.36 171.118 29.64C171.118 28.94 170.888 28.36 170.428 27.9C169.968 27.42 169.388 27.18 168.688 27.18H163.918V32.13H168.688ZM187.103 21H191.243L185.783 36C185.003 38.16 183.963 39.72 182.663 40.68C181.383 41.66 179.783 42.1 177.863 42V38.4C178.903 38.42 179.723 38.2 180.323 37.74C180.943 37.28 181.433 36.54 181.793 35.52L175.643 21H179.873L183.773 31.08L187.103 21ZM201.664 24.72H198.274V30.96C198.274 31.48 198.404 31.86 198.664 32.1C198.924 32.34 199.304 32.48 199.804 32.52C200.304 32.54 200.924 32.53 201.664 32.49V36C199.004 36.3 197.124 36.05 196.024 35.25C194.944 34.45 194.404 33.02 194.404 30.96V24.72H191.794V21H194.404V17.97L198.274 16.8V21H201.664V24.72ZM207.194 30.09C207.714 31.97 209.124 32.91 211.424 32.91C212.904 32.91 214.024 32.41 214.784 31.41L217.904 33.21C216.424 35.35 214.244 36.42 211.364 36.42C208.884 36.42 206.894 35.67 205.394 34.17C203.894 32.67 203.144 30.78 203.144 28.5C203.144 26.24 203.884 24.36 205.364 22.86C206.844 21.34 208.744 20.58 211.064 20.58C213.264 20.58 215.074 21.34 216.494 22.86C217.934 24.38 218.654 26.26 218.654 28.5C218.654 29 218.604 29.53 218.504 30.09H207.194ZM207.134 27.09H214.784C214.564 26.07 214.104 25.31 213.404 24.81C212.724 24.31 211.944 24.06 211.064 24.06C210.024 24.06 209.164 24.33 208.484 24.87C207.804 25.39 207.354 26.13 207.134 27.09ZM224.34 25.26C224.34 25.66 224.6 25.99 225.12 26.25C225.66 26.49 226.31 26.71 227.07 26.91C227.83 27.09 228.59 27.33 229.35 27.63C230.11 27.91 230.75 28.39 231.27 29.07C231.81 29.75 232.08 30.6 232.08 31.62C232.08 33.16 231.5 34.35 230.34 35.19C229.2 36.01 227.77 36.42 226.05 36.42C222.97 36.42 220.87 35.23 219.75 32.85L223.11 30.96C223.55 32.26 224.53 32.91 226.05 32.91C227.43 32.91 228.12 32.48 228.12 31.62C228.12 31.22 227.85 30.9 227.31 30.66C226.79 30.4 226.15 30.17 225.39 29.97C224.63 29.77 223.87 29.52 223.11 29.22C222.35 28.92 221.7 28.45 221.16 27.81C220.64 27.15 220.38 26.33 220.38 25.35C220.38 23.87 220.92 22.71 222 21.87C223.1 21.01 224.46 20.58 226.08 20.58C227.3 20.58 228.41 20.86 229.41 21.42C230.41 21.96 231.2 22.74 231.78 23.76L228.48 25.56C228 24.54 227.2 24.03 226.08 24.03C225.58 24.03 225.16 24.14 224.82 24.36C224.5 24.58 224.34 24.88 224.34 25.26ZM238.443 35.64C237.943 36.14 237.343 36.39 236.643 36.39C235.943 36.39 235.343 36.14 234.843 35.64C234.343 35.14 234.093 34.54 234.093 33.84C234.093 33.14 234.343 32.54 234.843 32.04C235.343 31.54 235.943 31.29 236.643 31.29C237.343 31.29 237.943 31.54 238.443 32.04C238.943 32.54 239.193 33.14 239.193 33.84C239.193 34.54 238.943 35.14 238.443 35.64ZM256.1 36L254.84 32.22H246.47L245.21 36H240.74L248.09 15H253.22L260.6 36H256.1ZM247.79 28.35H253.55L250.67 19.77L247.79 28.35ZM262.639 15H266.779V36H262.639V15Z" fill="white"/>
<defs>
<clipPath id="clip0_17_102">
<rect width="54" height="54" fill="white" transform="translate(0.5 0.5)"/>
</clipPath>
</defs>
</svg>
