<svg width="26" height="27" viewBox="0 0 26 27" fill="none" xmlns="http://www.w3.org/2000/svg">
<path d="M25.2764 17.7766C25.7446 16.4366 26 14.9969 26 13.4993C26 12.0015 25.7446 10.5626 25.2764 9.22252C25.2653 9.18243 25.2515 9.14308 25.2352 9.10542C23.4299 4.09286 18.6272 0.499023 13.0001 0.499023C7.37298 0.499023 2.57026 4.09267 0.765005 9.10542C0.748517 9.14289 0.734464 9.18243 0.723784 9.22252C0.255561 10.5626 0 12.0015 0 13.4993C0 14.9969 0.255561 16.4366 0.723784 17.7766C0.735214 17.8167 0.748704 17.8561 0.765005 17.8938C2.57101 22.9063 7.37298 26.5001 13.0001 26.5001C18.6272 26.5001 23.4299 22.9065 25.2352 17.8938C25.2515 17.8561 25.2653 17.8167 25.2764 17.7766ZM12.9999 24.6364C12.5049 24.6364 11.7065 23.7403 11.0393 21.7387C10.7172 20.7728 10.46 19.6621 10.2721 18.4543H15.7279C15.5406 19.6623 15.2828 20.7724 14.9607 21.7387C14.2933 23.7403 13.4949 24.6364 12.9999 24.6364ZM10.0457 16.5906C9.9558 15.597 9.90858 14.5604 9.90858 13.4993C9.90858 12.4383 9.9558 11.4021 10.0457 10.4085H15.9543C16.0436 11.4021 16.0909 12.4383 16.0909 13.4993C16.0909 14.5604 16.0436 15.597 15.9543 16.5906H10.0457ZM1.86333 13.4993C1.86333 12.4274 2.01548 11.3901 2.30009 10.4085H8.17658C8.08927 11.4227 8.04505 12.4619 8.04505 13.4993C8.04505 14.5373 8.08927 15.5764 8.17658 16.5906H2.30009C2.01548 15.6085 1.86333 14.5718 1.86333 13.4993ZM12.9999 2.36274C13.4949 2.36274 14.2933 3.2589 14.9605 5.26052C15.2826 6.22638 15.5404 7.33708 15.7277 8.54483H10.2719C10.4592 7.33633 10.7171 6.22619 11.0391 5.26052C11.7065 3.25871 12.5049 2.36274 12.9999 2.36274ZM17.8232 10.4085H23.6995C23.9836 11.39 24.1365 12.4274 24.1365 13.4993C24.1365 14.5718 23.9836 15.6092 23.6995 16.5906H17.8232C17.9105 15.5764 17.9542 14.5373 17.9542 13.4993C17.9542 12.4619 17.9105 11.4227 17.8232 10.4085ZM22.9718 8.54501H17.6098C17.278 6.25917 16.7095 4.20884 15.9117 2.74983C19.0044 3.5881 21.5668 5.72893 22.9718 8.54501ZM10.0881 2.74965C9.29027 4.20865 8.722 6.25898 8.38999 8.54483H3.02799C4.43304 5.72893 6.99543 3.5881 10.0881 2.74965ZM3.02818 18.4542H8.39018C8.722 20.74 9.29046 22.7903 10.0883 24.2493C6.99544 23.4103 4.43304 21.2702 3.02818 18.4542ZM15.9117 24.2493C16.7095 22.7903 17.2778 20.74 17.6098 18.4542H22.9718C21.5668 21.2702 19.0044 23.4103 15.9117 24.2493Z" fill="#2675E2"/>
</svg>
