<svg width="26" height="27" viewBox="0 0 26 27" fill="none" xmlns="http://www.w3.org/2000/svg">
<path d="M19.0299 19.7627L22.3992 26.3628C22.2721 26.4545 22.0602 26.5003 21.7635 26.5003H6.02293C5.76864 26.5003 5.55673 26.4545 5.38721 26.3628L8.8837 19.8314" fill="#2684FC"/>
<path d="M18.9028 19.7627L22.3993 26.3628C22.6536 26.2253 22.8655 25.9961 23.035 25.6753L25.7687 20.4502C25.8534 20.1752 25.8958 19.946 25.8958 19.7627" fill="#EA4335"/>
<path d="M8.82856 19.9453L1.85856 19.8009C1.84873 19.6359 1.91798 19.4146 2.06632 19.1367L9.9366 4.39457C10.0637 4.15641 10.2064 3.98086 10.3646 3.86792L13.8466 10.4083" fill="#00AC47"/>
<path d="M8.89209 19.8262L1.85852 19.8008C1.84148 20.1077 1.91905 20.4208 2.09121 20.74L4.90862 25.9127C5.08646 26.1296 5.24878 26.2839 5.3956 26.3756" fill="#0066DA"/>
<path d="M13.7832 10.2998L17.3838 3.84417C17.5208 3.91741 17.6634 4.09296 17.8118 4.37082L25.6821 19.1129C25.8092 19.3511 25.8785 19.5725 25.8898 19.7771L18.9113 19.7681" fill="#FFBA00"/>
<path d="M13.8467 10.4189L17.3838 3.84419C17.1465 3.67478 16.857 3.5909 16.5153 3.59255L10.9643 3.64486C10.7017 3.70297 10.497 3.77787 10.3502 3.86953" fill="#00832D"/>
</svg>
