<svg width="20" height="25" viewBox="0 0 20 25" fill="none" xmlns="http://www.w3.org/2000/svg">
<path d="M2.41667 1.125C1.22002 1.125 0.25 2.1 0.25 3.29167V11.9583V16.2917V22.7917C0.25 23.9833 1.22002 24.9583 2.41667 24.9583H17.5833C18.7804 24.9583 19.75 23.9833 19.75 22.7917V16.2917V11.9583V7.625L13.25 1.125H2.41667Z" fill="#95A5A6"/>
<path d="M2.41667 0.0419922C1.22002 0.0419922 0.25 1.01699 0.25 2.20866V10.8753V15.2087V21.7087C0.25 22.9003 1.22002 23.8753 2.41667 23.8753H17.5833C18.7804 23.8753 19.75 22.9003 19.75 21.7087V15.2087V10.8753V6.54199L13.25 0.0419922H2.41667Z" fill="#BDC3C7"/>
<path d="M19.75 6.54199L13.25 0.0419922V4.37533C13.25 5.56699 14.2196 6.54199 15.4167 6.54199H19.75Z" fill="#95A5A6"/>
<path d="M10.0002 13.042C8.80308 13.042 7.8335 14.017 7.8335 15.2087V19.542C7.8335 20.7337 8.80308 21.7087 10.0002 21.7087C11.1972 21.7087 12.1668 20.7337 12.1668 19.542V15.2087C12.1668 14.017 11.1972 13.042 10.0002 13.042ZM10.0002 14.1253C10.5982 14.1253 11.0835 14.5587 11.0835 15.2087C11.0835 15.7503 10.5982 16.292 10.0002 16.292C9.40216 16.292 8.91683 15.7503 8.91683 15.2087C8.91683 14.5587 9.40216 14.1253 10.0002 14.1253ZM10.0002 17.3753C10.5982 17.3753 11.0835 17.8087 11.0835 18.4587V19.542C11.0835 20.0837 10.5982 20.6253 10.0002 20.6253C9.40216 20.6253 8.91683 20.0837 8.91683 19.542V18.4587C8.91683 17.8087 9.40216 17.3753 10.0002 17.3753Z" fill="#BDC3C7"/>
<path d="M7.8335 0.0419922V10.8753C7.8335 12.067 8.80308 13.042 10.0002 13.042C11.1972 13.042 12.1668 12.067 12.1668 10.8753V0.0419922H7.8335Z" fill="#7F8C8D"/>
<path d="M9.99984 0.0419922V1.12533H11.0832V0.0419922H9.99984ZM9.99984 1.12533H8.9165V2.20866H9.99984V1.12533ZM9.99984 2.20866V3.29199H11.0832V2.20866H9.99984ZM9.99984 3.29199H8.9165V4.37533H9.99984V3.29199ZM9.99984 4.37533V5.45866H11.0832V4.37533H9.99984ZM9.99984 5.45866H8.9165V6.54199H9.99984V5.45866ZM9.99984 6.54199V7.62533H11.0832V6.54199H9.99984ZM9.99984 7.62533H8.9165V8.70866H9.99984V7.62533ZM9.99984 8.70866V9.79199H11.0832V8.70866H9.99984ZM9.99984 9.79199H8.9165V10.8753H9.99984V9.79199ZM9.99984 10.8753V11.9587C10.5978 11.9587 11.0832 11.417 11.0832 10.8753H9.99984Z" fill="#95A5A6"/>
<path d="M8.9165 0.0419922V1.12533H9.99984V0.0419922H8.9165ZM8.9165 2.20866V3.29199H9.99984V2.20866H8.9165ZM8.9165 4.37533V5.45866H9.99984V4.37533H8.9165ZM8.9165 6.54199V7.62533H9.99984V6.54199H8.9165ZM8.9165 8.70866V9.79199H9.99984V8.70866H8.9165ZM8.9165 10.8753C8.9165 11.417 9.40184 11.9587 9.99984 11.9587V10.8753H8.9165Z" fill="#ECF0F1"/>
<path d="M10.0002 13.042C8.80308 13.042 7.8335 14.017 7.8335 15.2087V19.542C7.8335 20.7337 8.80308 21.7087 10.0002 21.7087C11.1972 21.7087 12.1668 20.7337 12.1668 19.542V15.2087C12.1668 14.017 11.1972 13.042 10.0002 13.042ZM10.0002 14.1253C10.5982 14.1253 11.0835 14.5587 11.0835 15.2087C11.0835 15.7503 10.5982 16.292 10.0002 16.292C9.40216 16.292 8.91683 15.7503 8.91683 15.2087C8.91683 14.5587 9.40216 14.1253 10.0002 14.1253ZM10.0002 17.3753C10.5982 17.3753 11.0835 17.8087 11.0835 18.4587V19.542C11.0835 20.0837 10.5982 20.6253 10.0002 20.6253C9.40216 20.6253 8.91683 20.0837 8.91683 19.542V18.4587C8.91683 17.8087 9.40216 17.3753 10.0002 17.3753Z" fill="#95A5A6"/>
<path d="M10.0002 11.959C8.80308 11.959 7.8335 12.934 7.8335 14.1257V18.459C7.8335 19.6507 8.80308 20.6257 10.0002 20.6257C11.1972 20.6257 12.1668 19.6507 12.1668 18.459V14.1257C12.1668 12.934 11.1972 11.959 10.0002 11.959ZM10.0002 13.0423C10.5982 13.0423 11.0835 13.4757 11.0835 14.1257C11.0835 14.6673 10.5982 15.209 10.0002 15.209C9.40216 15.209 8.91683 14.6673 8.91683 14.1257C8.91683 13.4757 9.40216 13.0423 10.0002 13.0423ZM10.0002 16.2923C10.5982 16.2923 11.0835 16.7257 11.0835 17.3757V18.459C11.0835 19.0007 10.5982 19.5423 10.0002 19.5423C9.40216 19.5423 8.91683 19.0007 8.91683 18.459V17.3757C8.91683 16.7257 9.40216 16.2923 10.0002 16.2923Z" fill="#ECF0F1"/>
</svg>
