<svg width="24" height="25" viewBox="0 0 24 25" fill="none" xmlns="http://www.w3.org/2000/svg">
<path d="M12 16C14.21 16 16 14.21 16 12V6.5C16 4.29 14.21 2.5 12 2.5C9.79 2.5 8 4.29 8 6.5V12C8 14.21 9.79 16 12 16Z" stroke="#292D32" stroke-width="1.5" stroke-linecap="round" stroke-linejoin="round"/>
<path d="M4.35 10.1499V11.8499C4.35 16.0699 7.78 19.4999 12 19.4999C16.22 19.4999 19.65 16.0699 19.65 11.8499V10.1499" stroke="#292D32" stroke-width="1.5" stroke-linecap="round" stroke-linejoin="round"/>
<path d="M10.61 6.93012C11.51 6.60012 12.49 6.60012 13.39 6.93012" stroke="#292D32" stroke-width="1.5" stroke-linecap="round" stroke-linejoin="round"/>
<path d="M11.2 9.05007C11.73 8.91007 12.28 8.91007 12.81 9.05007" stroke="#292D32" stroke-width="1.5" stroke-linecap="round" stroke-linejoin="round"/>
<path d="M12 19.5V22.5" stroke="#292D32" stroke-width="1.5" stroke-linecap="round" stroke-linejoin="round"/>
</svg>
