<svg width="249" height="318" viewBox="0 0 249 318" fill="none" xmlns="http://www.w3.org/2000/svg">
<path d="M238.741 263.17H10.158C4.548 263.17 0 258.622 0 253.012V109.314C0 103.704 4.548 99.1562 10.158 99.1562H238.741C244.351 99.1562 248.899 103.704 248.899 109.314V253.012C248.899 258.622 244.351 263.17 238.741 263.17Z" fill="#FFE8D7"/>
<path d="M238.741 99.1562H10.158C4.548 99.1562 0 103.704 0 109.314V119.298H248.898V109.314C248.899 103.704 244.351 99.1562 238.741 99.1562Z" fill="url(#paint0_linear_2123_2206)"/>
<path d="M207.613 113.145C209.6 113.145 211.21 111.535 211.21 109.548C211.21 107.562 209.6 105.951 207.613 105.951C205.627 105.951 204.016 107.562 204.016 109.548C204.016 111.535 205.627 113.145 207.613 113.145Z" stroke="black" stroke-miterlimit="10" stroke-linejoin="round"/>
<path d="M221.062 113.145C223.049 113.145 224.659 111.535 224.659 109.548C224.659 107.562 223.049 105.951 221.062 105.951C219.076 105.951 217.465 107.562 217.465 109.548C217.465 111.535 219.076 113.145 221.062 113.145Z" stroke="black" stroke-miterlimit="10" stroke-linejoin="round"/>
<path d="M234.512 113.145C236.499 113.145 238.109 111.535 238.109 109.548C238.109 107.562 236.499 105.951 234.512 105.951C232.525 105.951 230.915 107.562 230.915 109.548C230.915 111.535 232.525 113.145 234.512 113.145Z" stroke="black" stroke-miterlimit="10" stroke-linejoin="round"/>
<path d="M102.06 149.424C99.223 149.424 96.477 147.529 94.299 145.711L91.647 143.498C90.007 142.129 88.058 141.396 86.061 141.396H63.436C61.383 141.396 59.719 143.06 59.719 145.113V149.424V228.446C59.719 231.202 61.953 233.435 64.708 233.435H178.916C181.672 233.435 183.905 231.201 183.905 228.446V154.414C183.905 151.658 181.671 149.425 178.916 149.425H102.06V149.424Z" fill="url(#paint1_linear_2123_2206)"/>
<path d="M174.81 165.411H142.502C141.062 165.411 139.894 164.243 139.894 162.803C139.894 161.363 141.062 160.195 142.502 160.195H174.81C176.25 160.195 177.418 161.363 177.418 162.803C177.418 164.244 176.25 165.411 174.81 165.411Z" stroke="black" stroke-miterlimit="10"/>
<path d="M216.106 0.0125926C233.107 0.475593 247.173 14.0926 248.151 31.0716C248.726 41.0556 244.857 50.1406 238.346 56.5496C237.384 57.4966 236.937 58.8466 237.162 60.1776L239.607 74.6476L224.562 65.8816C223.705 65.3826 222.695 65.1986 221.723 65.3956C218.045 66.1376 214.148 66.2736 210.132 65.6656C195.269 63.4136 183.673 51.1096 182.302 36.1386C180.475 16.1866 196.412 -0.524407 216.106 0.0125926Z" fill="#FFE8D7"/>
<path d="M214.278 47.7725C213.821 47.7725 213.471 47.6275 213.228 47.3385C212.984 47.0495 212.863 46.6465 212.863 46.1285C212.863 45.6415 212.992 45.2455 213.251 44.9415C213.509 44.6375 213.852 44.4845 214.278 44.4845C214.764 44.4845 215.123 44.6295 215.351 44.9185C215.58 45.2085 215.694 45.6115 215.694 46.1285C215.694 46.5855 215.572 46.9735 215.328 47.2935C215.084 47.6125 214.735 47.7725 214.278 47.7725ZM213.997 36.4005C213.962 35.4575 213.928 34.4905 213.893 33.5005C213.858 32.5115 213.832 31.5215 213.815 30.5315C213.797 29.5425 213.805 28.5295 213.841 27.4945V15.4375H214.987L215.039 27.4945C215.039 28.5295 215.03 29.5425 215.013 30.5315C214.995 31.5215 214.969 32.5115 214.935 33.5005C214.899 34.4905 214.865 35.4575 214.83 36.4005H213.997Z" fill="black"/>
<path d="M71.9442 298.486H74.4447V311.17H72.5422L67.1062 303.415V311.17H64.6057V298.486H66.5083L71.9442 306.223V298.486ZM84.4079 310.046C83.4778 310.965 82.3423 311.424 81.0014 311.424C79.6606 311.424 78.525 310.965 77.5949 310.046C76.6768 309.116 76.2178 307.981 76.2178 306.64C76.2178 305.299 76.6768 304.17 77.5949 303.252C78.525 302.321 79.6606 301.856 81.0014 301.856C82.3423 301.856 83.4778 302.321 84.4079 303.252C85.3381 304.17 85.8032 305.299 85.8032 306.64C85.8032 307.981 85.3381 309.116 84.4079 310.046ZM79.2438 308.434C79.7149 308.905 80.3008 309.141 81.0014 309.141C81.702 309.141 82.2879 308.905 82.759 308.434C83.2302 307.963 83.4657 307.365 83.4657 306.64C83.4657 305.915 83.2302 305.317 82.759 304.846C82.2879 304.375 81.702 304.139 81.0014 304.139C80.3008 304.139 79.7149 304.375 79.2438 304.846C78.7848 305.317 78.5552 305.915 78.5552 306.64C78.5552 307.365 78.7848 307.963 79.2438 308.434ZM97.1235 298.486C98.863 298.486 100.313 299.096 101.472 300.316C102.644 301.536 103.23 303.04 103.23 304.828C103.23 306.616 102.644 308.12 101.472 309.34C100.313 310.56 98.863 311.17 97.1235 311.17H92.0862V298.486H97.1235ZM97.1235 308.778C98.2228 308.778 99.1167 308.416 99.8052 307.691C100.494 306.954 100.838 306 100.838 304.828C100.838 303.656 100.494 302.708 99.8052 301.983C99.1167 301.246 98.2228 300.878 97.1235 300.878H94.5867V308.778H97.1235ZM111.78 302.11H114.118V311.17H111.78V310.101C111.08 310.983 110.095 311.424 108.827 311.424C107.619 311.424 106.58 310.965 105.71 310.046C104.853 309.116 104.424 307.981 104.424 306.64C104.424 305.299 104.853 304.17 105.71 303.252C106.58 302.321 107.619 301.856 108.827 301.856C110.095 301.856 111.08 302.297 111.78 303.179V302.11ZM107.468 308.488C107.939 308.959 108.537 309.195 109.262 309.195C109.987 309.195 110.585 308.959 111.056 308.488C111.539 308.005 111.78 307.389 111.78 306.64C111.78 305.891 111.539 305.281 111.056 304.81C110.585 304.327 109.987 304.085 109.262 304.085C108.537 304.085 107.939 304.327 107.468 304.81C106.997 305.281 106.761 305.891 106.761 306.64C106.761 307.389 106.997 308.005 107.468 308.488ZM121.42 304.357H119.372V308.126C119.372 308.44 119.451 308.669 119.608 308.814C119.765 308.959 119.994 309.044 120.296 309.068C120.598 309.08 120.973 309.074 121.42 309.05V311.17C119.813 311.351 118.678 311.2 118.013 310.717C117.361 310.234 117.035 309.37 117.035 308.126V304.357H115.458V302.11H117.035V300.28L119.372 299.573V302.11H121.42V304.357ZM129.67 302.11H132.008V311.17H129.67V310.101C128.97 310.983 127.985 311.424 126.717 311.424C125.509 311.424 124.47 310.965 123.6 310.046C122.742 309.116 122.314 307.981 122.314 306.64C122.314 305.299 122.742 304.17 123.6 303.252C124.47 302.321 125.509 301.856 126.717 301.856C127.985 301.856 128.97 302.297 129.67 303.179V302.11ZM125.358 308.488C125.829 308.959 126.427 309.195 127.152 309.195C127.876 309.195 128.474 308.959 128.945 308.488C129.429 308.005 129.67 307.389 129.67 306.64C129.67 305.891 129.429 305.281 128.945 304.81C128.474 304.327 127.876 304.085 127.152 304.085C126.427 304.085 125.829 304.327 125.358 304.81C124.887 305.281 124.651 305.891 124.651 306.64C124.651 307.389 124.887 308.005 125.358 308.488ZM146.34 300.878H141.266V303.886H146.195V306.278H141.266V311.17H138.766V298.486H146.34V300.878ZM155.772 310.046C154.842 310.965 153.707 311.424 152.366 311.424C151.025 311.424 149.889 310.965 148.959 310.046C148.041 309.116 147.582 307.981 147.582 306.64C147.582 305.299 148.041 304.17 148.959 303.252C149.889 302.321 151.025 301.856 152.366 301.856C153.707 301.856 154.842 302.321 155.772 303.252C156.703 304.17 157.168 305.299 157.168 306.64C157.168 307.981 156.703 309.116 155.772 310.046ZM150.608 308.434C151.079 308.905 151.665 309.141 152.366 309.141C153.066 309.141 153.652 308.905 154.123 308.434C154.595 307.963 154.83 307.365 154.83 306.64C154.83 305.915 154.595 305.317 154.123 304.846C153.652 304.375 153.066 304.139 152.366 304.139C151.665 304.139 151.079 304.375 150.608 304.846C150.149 305.317 149.92 305.915 149.92 306.64C149.92 307.365 150.149 307.963 150.608 308.434ZM164.791 302.11H167.129V311.17H164.791V310.155C164.224 311.001 163.324 311.424 162.092 311.424C161.101 311.424 160.28 311.091 159.627 310.427C158.987 309.763 158.667 308.845 158.667 307.673V302.11H161.004V307.383C161.004 307.987 161.168 308.452 161.494 308.778C161.82 309.092 162.255 309.249 162.798 309.249C163.402 309.249 163.885 309.062 164.248 308.688C164.61 308.313 164.791 307.751 164.791 307.002V302.11ZM174.307 301.856C175.298 301.856 176.113 302.189 176.753 302.853C177.406 303.517 177.732 304.435 177.732 305.607V311.17H175.394V305.897C175.394 305.293 175.231 304.834 174.905 304.52C174.579 304.194 174.144 304.031 173.6 304.031C172.996 304.031 172.513 304.218 172.151 304.592C171.788 304.967 171.607 305.529 171.607 306.278V311.17H169.27V302.11H171.607V303.125C172.175 302.279 173.075 301.856 174.307 301.856ZM186.595 298.486H188.932V311.17H186.595V310.101C185.906 310.983 184.928 311.424 183.66 311.424C182.44 311.424 181.395 310.965 180.525 310.046C179.667 309.116 179.238 307.981 179.238 306.64C179.238 305.299 179.667 304.17 180.525 303.252C181.395 302.321 182.44 301.856 183.66 301.856C184.928 301.856 185.906 302.297 186.595 303.179V298.486ZM182.282 308.488C182.766 308.959 183.37 309.195 184.094 309.195C184.819 309.195 185.417 308.959 185.888 308.488C186.359 308.005 186.595 307.389 186.595 306.64C186.595 305.891 186.359 305.281 185.888 304.81C185.417 304.327 184.819 304.085 184.094 304.085C183.37 304.085 182.766 304.327 182.282 304.81C181.811 305.281 181.576 305.891 181.576 306.64C181.576 307.389 181.811 308.005 182.282 308.488Z" fill="black"/>
<defs>
<linearGradient id="paint0_linear_2123_2206" x1="124.449" y1="99.1562" x2="124.449" y2="119.298" gradientUnits="userSpaceOnUse">
<stop stop-color="#FB9A53"/>
<stop offset="0.0001" stop-color="#EF6A37"/>
</linearGradient>
<linearGradient id="paint1_linear_2123_2206" x1="121.812" y1="141.396" x2="121.812" y2="233.435" gradientUnits="userSpaceOnUse">
<stop stop-color="#FB9A53"/>
<stop offset="0.0001" stop-color="#EF6A37"/>
</linearGradient>
</defs>
</svg>
