<svg width="30" height="23" viewBox="0 0 30 23" fill="none" xmlns="http://www.w3.org/2000/svg">
<path d="M26.4202 1.62305H9.35144L9.40373 1.75473L10.6791 4.92576L26.2435 4.93833C26.2435 4.93833 26.8073 4.97014 27.1206 5.0408L27.0881 5.02919V2.29013C27.0881 1.92124 26.7891 1.62305 26.4202 1.62305Z" fill="#FB9A53"/>
<path d="M26.2434 4.93761L10.679 4.92504L9.40367 1.75401L8.86438 0.412109H1.41476C0.632761 0.412109 0 1.04515 0 1.82718V21.1735C0 21.9545 0.632761 22.5884 1.41476 22.5884H27.8503C28.6322 22.5884 29.2659 21.9545 29.2659 21.1735V7.86201C29.2659 6.51805 28.3554 5.38723 27.1206 5.04008C26.8073 4.96942 26.2434 4.93761 26.2434 4.93761ZM28.9517 19.4275V20.4833H0.31629V19.4275H28.9517Z" fill="#EF6A37"/>
<path d="M28.9516 19.4277H0.316162V20.4836H28.9516V19.4277Z" fill="#FB9A53"/>
</svg>
