<svg width="19" height="18" viewBox="0 0 19 18" fill="none" xmlns="http://www.w3.org/2000/svg">
<path d="M10.9157 16.223C10.0307 16.223 8.77821 15.6005 7.78821 12.623L7.24821 11.003L5.62821 10.463C2.65821 9.47298 2.03571 8.22048 2.03571 7.33548C2.03571 6.45798 2.65821 5.19798 5.62821 4.20048L11.9957 2.07798C13.5857 1.54548 14.9132 1.70298 15.7307 2.51298C16.5482 3.32298 16.7057 4.65798 16.1732 6.24798L14.0507 12.6155C13.0532 15.6005 11.8007 16.223 10.9157 16.223ZM5.98071 5.27298C3.89571 5.97048 3.15321 6.79548 3.15321 7.33548C3.15321 7.87548 3.89571 8.70048 5.98071 9.39048L7.87071 10.0205C8.03571 10.073 8.17071 10.208 8.22321 10.373L8.85321 12.263C9.54321 14.348 10.3757 15.0905 10.9157 15.0905C11.4557 15.0905 12.2807 14.348 12.9782 12.263L15.1007 5.89548C15.4832 4.74048 15.4157 3.79548 14.9282 3.30798C14.4407 2.82048 13.4957 2.76048 12.3482 3.14298L5.98071 5.27298Z" fill="#292D32"/>
<path d="M7.83321 10.8C7.69071 10.8 7.54821 10.7475 7.43571 10.635C7.21821 10.4175 7.21821 10.0575 7.43571 9.84L10.1207 7.1475C10.3382 6.93 10.6982 6.93 10.9157 7.1475C11.1332 7.365 11.1332 7.725 10.9157 7.9425L8.23071 10.635C8.12571 10.7475 7.97571 10.8 7.83321 10.8Z" fill="#292D32"/>
</svg>
