<svg width="19" height="18" viewBox="0 0 19 18" fill="none" xmlns="http://www.w3.org/2000/svg">
<path d="M10.9156 16.223C10.0306 16.223 8.77814 15.6005 7.78814 12.623L7.24814 11.003L5.62814 10.463C2.65814 9.47298 2.03564 8.22048 2.03564 7.33548C2.03564 6.45798 2.65814 5.19798 5.62814 4.20048L11.9956 2.07798C13.5856 1.54548 14.9131 1.70298 15.7306 2.51298C16.5481 3.32298 16.7056 4.65798 16.1731 6.24798L14.0506 12.6155C13.0531 15.6005 11.8006 16.223 10.9156 16.223ZM5.98064 5.27298C3.89564 5.97048 3.15314 6.79548 3.15314 7.33548C3.15314 7.87548 3.89564 8.70048 5.98064 9.39048L7.87064 10.0205C8.03564 10.073 8.17064 10.208 8.22314 10.373L8.85314 12.263C9.54314 14.348 10.3756 15.0905 10.9156 15.0905C11.4556 15.0905 12.2806 14.348 12.9781 12.263L15.1006 5.89548C15.4831 4.74048 15.4156 3.79548 14.9281 3.30798C14.4406 2.82048 13.4956 2.76048 12.3481 3.14298L5.98064 5.27298Z" fill="#292D32"/>
<path d="M7.83333 10.8C7.69083 10.8 7.54833 10.7475 7.43583 10.635C7.21833 10.4175 7.21833 10.0575 7.43583 9.84L10.1208 7.1475C10.3383 6.93 10.6983 6.93 10.9158 7.1475C11.1333 7.365 11.1333 7.725 10.9158 7.9425L8.23083 10.635C8.12583 10.7475 7.97583 10.8 7.83333 10.8Z" fill="#292D32"/>
</svg>
