<svg width="30" height="30" viewBox="0 0 30 30" fill="none" xmlns="http://www.w3.org/2000/svg">
<g clip-path="url(#clip0_48_187)">
<path d="M25.2098 0H4.79019C2.14464 0 0 2.14464 0 4.79019V25.2098C0 27.8554 2.14464 30 4.79019 30H25.2098C27.8554 30 30 27.8554 30 25.2098V4.79019C30 2.14464 27.8554 0 25.2098 0Z" fill="white"/>
<path d="M8.23534 16.8851L5.26095 19.8595L10.1073 24.7065L14.9627 19.8511L5.1958 10.083L10.0703 5.2085L13.244 8.38216" stroke="#EF6A37" stroke-width="2.39509" stroke-miterlimit="10"/>
<path d="M16.6003 21.6345L19.7618 24.7966L25.0247 19.5351L20.2524 14.7628L24.8184 10.1968L19.8257 5.2041L14.9825 10.0492C14.9748 12.8952 14.9723 14.1637 14.9723 14.7621V16.2037" stroke="#EF6A37" stroke-width="2.39509" stroke-miterlimit="10"/>
</g>
<defs>
<clipPath id="clip0_48_187">
<rect width="30" height="30" fill="white"/>
</clipPath>
</defs>
</svg>
