<svg width="19" height="18" viewBox="0 0 19 18" fill="none" xmlns="http://www.w3.org/2000/svg">
<path d="M16.0007 5.04785C15.9857 5.04785 15.9632 5.04785 15.9407 5.04785C11.9732 4.65035 8.01323 4.50035 4.09073 4.89785L2.56073 5.04785C2.24573 5.07785 1.96823 4.85285 1.93823 4.53785C1.90823 4.22285 2.13323 3.95285 2.44073 3.92285L3.97073 3.77285C7.96073 3.36785 12.0032 3.52535 16.0532 3.92285C16.3607 3.95285 16.5857 4.23035 16.5557 4.53785C16.5332 4.83035 16.2857 5.04785 16.0007 5.04785Z" fill="#292D32"/>
<path d="M6.6258 4.29C6.5958 4.29 6.5658 4.29 6.5283 4.2825C6.2283 4.23 6.0183 3.9375 6.0708 3.6375L6.2358 2.655C6.3558 1.935 6.5208 0.9375 8.2683 0.9375H10.2333C11.9883 0.9375 12.1533 1.9725 12.2658 2.6625L12.4308 3.6375C12.4833 3.945 12.2733 4.2375 11.9733 4.2825C11.6658 4.335 11.3733 4.125 11.3283 3.825L11.1633 2.85C11.0583 2.1975 11.0358 2.07 10.2408 2.07H8.2758C7.4808 2.07 7.4658 2.175 7.3533 2.8425L7.1808 3.8175C7.1358 4.095 6.8958 4.29 6.6258 4.29Z" fill="#292D32"/>
<path d="M11.6583 17.0627H6.84328C4.22578 17.0627 4.12078 15.6152 4.03828 14.4452L3.55078 6.89268C3.52828 6.58518 3.76828 6.31518 4.07578 6.29268C4.39078 6.27768 4.65328 6.51018 4.67578 6.81768L5.16328 14.3702C5.24578 15.5102 5.27578 15.9377 6.84328 15.9377H11.6583C13.2333 15.9377 13.2633 15.5102 13.3383 14.3702L13.8258 6.81768C13.8483 6.51018 14.1183 6.27768 14.4258 6.29268C14.7333 6.31518 14.9733 6.57768 14.9508 6.89268L14.4633 14.4452C14.3808 15.6152 14.2758 17.0627 11.6583 17.0627Z" fill="#292D32"/>
<path d="M10.4958 12.9375H7.99829C7.69079 12.9375 7.43579 12.6825 7.43579 12.375C7.43579 12.0675 7.69079 11.8125 7.99829 11.8125H10.4958C10.8033 11.8125 11.0583 12.0675 11.0583 12.375C11.0583 12.6825 10.8033 12.9375 10.4958 12.9375Z" fill="#292D32"/>
<path d="M11.1257 9.9375H7.37573C7.06823 9.9375 6.81323 9.6825 6.81323 9.375C6.81323 9.0675 7.06823 8.8125 7.37573 8.8125H11.1257C11.4332 8.8125 11.6882 9.0675 11.6882 9.375C11.6882 9.6825 11.4332 9.9375 11.1257 9.9375Z" fill="#292D32"/>
</svg>
