<svg width="24" height="25" viewBox="0 0 24 25" fill="none" xmlns="http://www.w3.org/2000/svg">
<path fill-rule="evenodd" clip-rule="evenodd" d="M11.2929 3.79289C11.6834 3.40237 12.3166 3.40237 12.7071 3.79289L16.7071 7.79289C17.0976 8.18342 17.0976 8.81658 16.7071 9.20711C16.3166 9.59763 15.6834 9.59763 15.2929 9.20711L13 6.91421V15.5C13 16.0523 12.5523 16.5 12 16.5C11.4477 16.5 11 16.0523 11 15.5V6.91421L8.70711 9.20711C8.31658 9.59763 7.68342 9.59763 7.29289 9.20711C6.90237 8.81658 6.90237 8.18342 7.29289 7.79289L11.2929 3.79289ZM4 14.5C4.55228 14.5 5 14.9477 5 15.5V18.5C5 19.0523 5.44772 19.5 6 19.5H18C18.5523 19.5 19 19.0523 19 18.5V15.5C19 14.9477 19.4477 14.5 20 14.5C20.5523 14.5 21 14.9477 21 15.5V18.5C21 20.1569 19.6569 21.5 18 21.5H6C4.34315 21.5 3 20.1569 3 18.5V15.5C3 14.9477 3.44772 14.5 4 14.5Z" fill="black"/>
</svg>
