<svg width="26" height="21" viewBox="0 0 26 21" fill="none" xmlns="http://www.w3.org/2000/svg">
<path d="M25.6823 5.32009C25.4081 4.98207 24.9936 4.78559 24.5557 4.78559H23.1113C23.1113 3.99659 22.4646 3.35706 21.6669 3.35706H20.2225V1.92853C20.2225 1.13953 19.5758 0.5 18.7781 0.5H1.4444C0.64663 0.5 0 1.13953 0 1.92853V19.0715C0 19.8605 0.64663 20.5 1.4444 20.5H4.3332H18.7778H21.6666C22.3436 20.5 22.9295 20.0349 23.0766 19.3815L25.9654 6.52412C26.0608 6.10088 25.9566 5.65811 25.6823 5.32009ZM1.4444 1.92825H18.7778V3.35678H17.3334C16.5356 3.35678 15.889 3.99631 15.889 4.78531H7.22229C6.54532 4.78531 5.95937 5.25045 5.81224 5.90385C5.81224 5.90385 2.88995 18.9679 2.88995 19.0709H1.4444V1.92825Z" fill="#2675E2"/>
</svg>
