<svg width="26" height="26" viewBox="0 0 26 26" fill="none" xmlns="http://www.w3.org/2000/svg">
<path d="M25.2764 17.2769C25.7446 15.9369 26 14.4973 26 12.9997C26 11.502 25.7446 10.0631 25.2764 8.72312C25.2653 8.68303 25.2515 8.64368 25.2352 8.60603C23.4299 3.59368 18.6272 0 13.0001 0C7.37298 0 2.57026 3.5935 0.765005 8.60603C0.748517 8.6435 0.734464 8.68303 0.723784 8.72312C0.255561 10.0631 0 11.502 0 12.9997C0 14.4973 0.255561 15.9369 0.723784 17.2769C0.735214 17.317 0.748704 17.3563 0.765005 17.394C2.57101 22.4063 7.37298 26 13.0001 26C18.6272 26 23.4299 22.4065 25.2352 17.394C25.2515 17.3563 25.2653 17.317 25.2764 17.2769ZM12.9999 24.1364C12.5049 24.1364 11.7065 23.2402 11.0393 21.2387C10.7172 20.2729 10.46 19.1622 10.2721 17.9545H15.7279C15.5406 19.1624 15.2828 20.2725 14.9607 21.2387C14.2933 23.2402 13.4949 24.1364 12.9999 24.1364ZM10.0457 16.0909C9.9558 15.0974 9.90858 14.0607 9.90858 12.9997C9.90858 11.9387 9.9558 10.9026 10.0457 9.90909H15.9543C16.0436 10.9026 16.0909 11.9387 16.0909 12.9997C16.0909 14.0607 16.0436 15.0974 15.9543 16.0909H10.0457ZM1.86334 12.9997C1.86334 11.9279 2.01548 10.8906 2.30009 9.90909H8.17658C8.08927 10.9232 8.04505 11.9623 8.04505 12.9997C8.04505 14.0377 8.08927 15.0767 8.17658 16.0909H2.30009C2.01548 15.1088 1.86334 14.0721 1.86334 12.9997ZM12.9999 1.86363C13.4949 1.86363 14.2933 2.75976 14.9605 4.76129C15.2826 5.72711 15.5404 6.83776 15.7277 8.04545H10.2719C10.4592 6.83701 10.7171 5.72692 11.0391 4.76129C11.7065 2.75957 12.5049 1.86363 12.9999 1.86363ZM17.8232 9.90909H23.6995C23.9836 10.8905 24.1365 11.9279 24.1365 12.9997C24.1365 14.0721 23.9836 15.1095 23.6995 16.0909H17.8232C17.9105 15.0767 17.9542 14.0377 17.9542 12.9997C17.9542 11.9623 17.9105 10.9232 17.8232 9.90909ZM22.9718 8.04564H17.6098C17.278 5.7599 16.7095 3.70966 15.9117 2.25071C19.0044 3.08894 21.5668 5.22968 22.9718 8.04564ZM10.0881 2.25052C9.29027 3.70947 8.722 5.75971 8.38999 8.04545H3.02799C4.43304 5.22968 6.99543 3.08894 10.0881 2.25052ZM3.02818 17.9544H8.39018C8.722 20.2401 9.29046 22.2903 10.0883 23.7493C6.99544 22.9103 4.43304 20.7703 3.02818 17.9544ZM15.9117 23.7493C16.7095 22.2903 17.2778 20.2401 17.6098 17.9544H22.9718C21.5668 20.7703 19.0044 22.9103 15.9117 23.7493Z" fill="#2675E2"/>
</svg>
